<svg width="65" height="64" viewBox="0 0 65 64" fill="none" xmlns="http://www.w3.org/2000/svg">
<g clip-path="url(#clip0_1_1065)">
<path fill-rule="evenodd" clip-rule="evenodd" d="M32.5 4C27.1957 4 22.1086 6.10714 18.3579 9.85786C14.6071 13.6086 12.5 18.6957 12.5 24V42H8.5V24C8.5 20.8483 9.12078 17.7274 10.3269 14.8156C11.533 11.9038 13.3008 9.25804 15.5294 7.02944C17.758 4.80083 20.4038 3.033 23.3156 1.82689C26.2274 0.620778 29.3483 0 32.5 0C35.6517 0 38.7726 0.620778 41.6844 1.82689C44.5962 3.033 47.242 4.80083 49.4706 7.02944C51.6992 9.25804 53.467 11.9038 54.6731 14.8156C55.8792 17.7274 56.5 20.8483 56.5 24V42H52.5V24C52.5 21.3736 51.9827 18.7728 50.9776 16.3463C49.9725 13.9198 48.4993 11.715 46.6421 9.85786C44.785 8.00069 42.5802 6.5275 40.1537 5.52241C37.7272 4.51732 35.1264 4 32.5 4Z" fill="#553F89"/>
<path d="M44.5 32C44.5 30.9391 44.9214 29.9217 45.6716 29.1716C46.4217 28.4214 47.4391 28 48.5 28H56.5V44C56.5 45.0609 56.0786 46.0783 55.3284 46.8284C54.5783 47.5786 53.5609 48 52.5 48H48.5C47.4391 48 46.4217 47.5786 45.6716 46.8284C44.9214 46.0783 44.5 45.0609 44.5 44V32ZM20.5 32C20.5 30.9391 20.0786 29.9217 19.3284 29.1716C18.5783 28.4214 17.5609 28 16.5 28H8.5V44C8.5 45.0609 8.92143 46.0783 9.67157 46.8284C10.4217 47.5786 11.4391 48 12.5 48H16.5C17.5609 48 18.5783 47.5786 19.3284 46.8284C20.0786 46.0783 20.5 45.0609 20.5 44V32Z" fill="#553F89"/>
<path fill-rule="evenodd" clip-rule="evenodd" d="M54.5 34C55.0304 34 55.5391 34.2107 55.9142 34.5858C56.2893 34.9609 56.5 35.4696 56.5 36V48C56.5 50.6522 55.4464 53.1957 53.5711 55.0711C51.6957 56.9464 49.1522 58 46.5 58H32.5C31.9696 58 31.4609 57.7893 31.0858 57.4142C30.7107 57.0391 30.5 56.5304 30.5 56C30.5 55.4696 30.7107 54.9609 31.0858 54.5858C31.4609 54.2107 31.9696 54 32.5 54H46.5C48.0913 54 49.6174 53.3679 50.7426 52.2426C51.8679 51.1174 52.5 49.5913 52.5 48V36C52.5 35.4696 52.7107 34.9609 53.0858 34.5858C53.4609 34.2107 53.9696 34 54.5 34Z" fill="#553F89"/>
<path d="M26.5 56C26.5 54.9391 26.9214 53.9217 27.6716 53.1716C28.4217 52.4214 29.4391 52 30.5 52H34.5C35.5609 52 36.5783 52.4214 37.3284 53.1716C38.0786 53.9217 38.5 54.9391 38.5 56C38.5 57.0609 38.0786 58.0783 37.3284 58.8284C36.5783 59.5786 35.5609 60 34.5 60H30.5C29.4391 60 28.4217 59.5786 27.6716 58.8284C26.9214 58.0783 26.5 57.0609 26.5 56Z" fill="#553F89"/>
</g>
<defs>
<clipPath id="clip0_1_1065">
<rect width="64" height="64" fill="white" transform="translate(0.5)"/>
</clipPath>
</defs>
</svg>
